<?xml version="1.0" encoding="utf-8"?>
<!-- Generator: Adobe Illustrator 21.0.0, SVG Export Plug-In . SVG Version: 6.00 Build 0)  -->
<svg version="1.1" id="圖層_1" xmlns="http://www.w3.org/2000/svg" xmlns:xlink="http://www.w3.org/1999/xlink" x="0px" y="0px"
	 viewBox="0 0 70 82" style="enable-background:new 0 0 70 82;" xml:space="preserve">
<style type="text/css">
	
		.st0{fill-rule:evenodd;clip-rule:evenodd;fill:#C61D06;stroke:#C61D06;stroke-linecap:round;stroke-linejoin:round;stroke-miterlimit:10;}
</style>
<path class="st0" d="M7.4,79.3c-2,0-4.2-3.7-4.2-9.1s2.1-9.1,4.2-9.1h24.7c-2,2.2-2.7,6-2.7,9.1c0,3,0.7,6.8,2.7,9.1H7.4z M35,79.3
	c-2.9,0-4.2-5.8-4.2-9.1c0-3.2,1.2-9.1,4.2-9.1h24.7l0,0c-2,2.1-2.7,6.2-2.7,9c0,2.9,0.7,6.9,2.7,9.1H35z M62.6,79.3
	c-3,0-4.1-6-4.1-9.1c0-3.1,1.1-9.1,4.1-9.1c2,0,4.2,3.7,4.2,9.1S64.6,79.3,62.6,79.3z M25.3,35.7c-1.2,0-2.7-0.3-3.2-1.8
	c-0.5-1.4,0-3.3,1.3-4.4c2.5-2.2,2.5-5.5,2.5-7.4v-0.5h2.4v14.2H25.3z M19.4,15.7H49v3.1H19.4V15.7z M30.9,40.9V20.3h8.1v20.6
	l-2.2,2.2v5h-3.8v-5L30.9,40.9z M62.6,58.4H36.7v-7.6h2.9v-6.6l2.1-2.2V21.5h9.9V13h-35v8.5H23V22c0,1.6,0,4-1.6,5.4
	c-2.1,1.9-2.9,5-2,7.5c0.9,2.3,3,3.5,5.8,3.5h2.9v3.6l2.2,2.2v6.6h2.9v7.6H7.4c-3.9,0-6.9,5.1-6.9,11.8c0,6.7,3,11.8,6.9,11.8h55.2
	c3.9,0,6.9-5.1,6.9-11.8C69.5,63.5,66.5,58.4,62.6,58.4z"/>
</svg>
