<?xml version="1.0" encoding="utf-8"?>
<!-- Generator: Adobe Illustrator 21.0.0, SVG Export Plug-In . SVG Version: 6.00 Build 0)  -->
<svg version="1.1" id="圖層_1" xmlns="http://www.w3.org/2000/svg" xmlns:xlink="http://www.w3.org/1999/xlink" x="0px" y="0px"
	 viewBox="0 0 70 82" style="enable-background:new 0 0 70 82;" xml:space="preserve">
<style type="text/css">
	.st0{fill-rule:evenodd;clip-rule:evenodd;fill:#C61D06;}
</style>
<path class="st0" d="M67.2,46.4c-0.6-0.3-1.2-0.6-1.8-0.9H43.6c-0.6,0.3-1.2,0.6-1.8,0.9c-0.6,0.3-1.2,0.7-1.8,1.1
	c0.6,0.4,1.2,0.7,1.8,1.1c0.6,0.3,1.2,0.6,1.8,0.9h21.8c0.6-0.3,1.2-0.6,1.8-0.9c0.6-0.3,1.2-0.7,1.8-1.1
	C68.4,47.1,67.8,46.8,67.2,46.4z M28.2,46.4c-0.6-0.3-1.2-0.6-1.8-0.9H4.6c-0.6,0.3-1.2,0.6-1.8,0.9c-0.6,0.3-1.2,0.7-1.8,1.1
	c0.6,0.4,1.2,0.7,1.8,1.1c0.6,0.3,1.2,0.6,1.8,0.9h21.8c0.6-0.3,1.2-0.6,1.8-0.9c0.6-0.3,1.2-0.7,1.8-1.1
	C29.4,47.1,28.8,46.8,28.2,46.4z M36,54.4c-0.3-0.6-0.7-1.2-1-1.8c-0.4,0.6-0.7,1.2-1,1.8c-0.3,0.6-0.6,1.2-0.9,1.8v22.1
	c0.3,0.6,0.6,1.2,0.9,1.8c0.3,0.6,0.7,1.2,1,1.8c0.4-0.6,0.7-1.2,1-1.8c0.3-0.6,0.6-1.2,0.9-1.8V56.2C36.7,55.6,36.4,55,36,54.4z
	 M36,14.8c-0.3-0.6-0.7-1.2-1-1.8c-0.4,0.6-0.7,1.2-1,1.8c-0.3,0.6-0.6,1.2-0.9,1.8v22.1c0.3,0.6,0.6,1.2,0.9,1.8
	c0.3,0.6,0.7,1.2,1,1.8c0.4-0.6,0.7-1.2,1-1.8c0.3-0.6,0.6-1.2,0.9-1.8V16.7C36.7,16.1,36.4,15.5,36,14.8z M23.4,43.9
	c1.2-3.9,4.2-7,8.1-8.2v-3.3c-5.6,1.3-10.1,5.8-11.4,11.5H23.4z M31.5,59.3c-3.9-1.2-6.9-4.3-8.1-8.2h-3.3
	c1.3,5.7,5.8,10.2,11.4,11.5v-2.8V59.3z M46.6,51.1c-1.2,3.9-4.2,7-8.1,8.2v0.6v2.8c5.6-1.4,10-5.9,11.4-11.5H46.6z M38.5,35.7
	c3.9,1.2,6.9,4.3,8.1,8.2h3.3c-1.3-5.7-5.8-10.2-11.4-11.5V35.7z M38.5,70.5v3.3c5.6-0.8,10.9-3.4,15-7.5c4.1-4.2,6.7-9.5,7.4-15.2
	h-3.2C56.2,61.1,48.4,69,38.5,70.5z M12.3,51.1H9.1c0.8,5.7,3.3,11,7.4,15.2c4.1,4.1,9.3,6.8,15,7.5v-3.3
	C21.6,69,13.8,61.1,12.3,51.1z M31.5,24.5v-3.3c-5.6,0.8-10.9,3.4-15,7.5c-4.1,4.2-6.7,9.4-7.4,15.2h3.2
	C13.8,33.9,21.6,26,31.5,24.5z M38.5,24.5v-3.3c5.6,0.8,10.9,3.4,15,7.5c4.1,4.2,6.7,9.4,7.4,15.2h-3.2C56.2,33.9,48.4,26,38.5,24.5
	z"/>
</svg>
