<?xml version="1.0" encoding="utf-8"?>
<!-- Generator: Adobe Illustrator 21.0.0, SVG Export Plug-In . SVG Version: 6.00 Build 0)  -->
<svg version="1.1" id="圖層_1" xmlns="http://www.w3.org/2000/svg" xmlns:xlink="http://www.w3.org/1999/xlink" x="0px" y="0px"
	 viewBox="0 0 70 82" style="enable-background:new 0 0 70 82;" xml:space="preserve">
<style type="text/css">
	
		.st0{fill-rule:evenodd;clip-rule:evenodd;fill:#C61D06;stroke:#C61D06;stroke-linecap:round;stroke-linejoin:round;stroke-miterlimit:10;}
</style>
<path class="st0" d="M39.5,17.8L36,15.4c-0.2-0.1-0.3-0.2-0.5-0.2c-0.2-0.1-0.4-0.1-0.5-0.1c-0.2,0-0.4,0-0.5,0.1
	c-0.2,0-0.3,0.1-0.5,0.2l-3.5,2.3l-0.1,0.1C30.3,17.9,30.1,18,30,18c-0.1,0.1-0.3,0.1-0.4,0.1c-0.1,0-0.3,0.1-0.5,0.1
	c-0.1,0-0.3,0-0.4,0h-0.1L24.3,18c-0.2,0-0.3,0-0.5,0.1c-0.2,0-0.3,0.1-0.5,0.2c-0.1,0.1-0.3,0.2-0.4,0.3c-0.1,0.1-0.2,0.3-0.3,0.4
	l-1.9,3.8l-0.1,0.1c-0.1,0.1-0.2,0.3-0.3,0.4l0,0c-0.1,0.1-0.2,0.2-0.3,0.3l-0.1,0.1c-0.1,0.1-0.2,0.2-0.4,0.3
	c-0.1,0.1-0.2,0.2-0.4,0.3l-0.1,0.1l-3.7,1.8c-0.2,0.1-0.3,0.1-0.4,0.3l0,0c-0.1,0.1-0.2,0.2-0.3,0.4l0,0c-0.1,0.1-0.2,0.3-0.2,0.5
	l0,0c0,0.2-0.1,0.3-0.1,0.5l0.3,4.2v0.1c0,0.1,0,0.3,0,0.4l0,0c0,0.2-0.1,0.3-0.1,0.5c0,0.1-0.1,0.3-0.1,0.4l0,0.1
	c0,0.1-0.1,0.3-0.2,0.4l-0.1,0.1l-2.3,3.5c-0.1,0.1-0.2,0.3-0.2,0.5c-0.1,0.2-0.1,0.4-0.1,0.5c0,0.2,0,0.4,0.1,0.5
	c0,0.2,0.1,0.3,0.2,0.5l2.3,3.5l0.1,0.1c0.1,0.2,0.1,0.3,0.2,0.4c0.1,0.2,0.1,0.3,0.1,0.5c0,0.1,0.1,0.3,0.1,0.5
	c0,0.2,0,0.3,0.1,0.4v0.1l-0.3,4.2c0,0.2,0,0.4,0.1,0.5c0,0.2,0.1,0.3,0.2,0.5c0.1,0.2,0.2,0.3,0.3,0.4c0.1,0.1,0.3,0.2,0.4,0.3
	l3.7,1.9l0.1,0.1c0.1,0.1,0.3,0.2,0.4,0.3c0.1,0.1,0.2,0.2,0.3,0.3l0.1,0.1c0.1,0.1,0.2,0.2,0.3,0.4c0.1,0.1,0.2,0.2,0.3,0.4
	c0,0,0.1,0.1,0.1,0.1l1.8,3.7c0.1,0.2,0.2,0.3,0.3,0.5c0.1,0.1,0.2,0.2,0.4,0.3l0.1,0c0.1,0.1,0.3,0.2,0.4,0.2l0,0
	c0.2,0,0.3,0.1,0.5,0l4.2-0.3h0.1c0.1,0,0.3,0,0.4,0l0,0c0.2,0,0.3,0.1,0.5,0.1c0.1,0,0.3,0.1,0.4,0.1c0.1,0.1,0.3,0.1,0.4,0.2
	l0.2,0.1L34,62c0.1,0.1,0.3,0.2,0.4,0.2l0.1,0c0.1,0,0.2,0.1,0.4,0.1h0l0.1,0l0,0H35h0.1h0h0l0,0h0c0.1,0,0.2,0,0.3-0.1
	c0.2-0.1,0.3-0.1,0.5-0.2l3.5-2.3l0.1-0.1c0.1,0,0.2-0.1,0.3-0.2l0.1,0c0.1,0,0.3-0.1,0.5-0.1c0.1,0,0.3-0.1,0.5-0.1
	c0.2,0,0.3,0,0.4,0h0.2l4.2,0.3c0.2,0,0.3,0,0.5,0c0.2,0,0.3-0.1,0.5-0.2c0.1-0.1,0.3-0.2,0.4-0.3c0.1-0.1,0.2-0.3,0.3-0.4l1.8-3.8
	l0.1-0.1c0.1-0.1,0.2-0.3,0.3-0.4c0.1-0.1,0.2-0.2,0.3-0.3l0.1-0.1c0.1-0.1,0.2-0.2,0.4-0.3c0.1-0.1,0.2-0.2,0.4-0.3l0.1-0.1
	l3.7-1.8c0.1-0.1,0.3-0.1,0.4-0.3l0.1,0c0.1-0.1,0.2-0.2,0.3-0.4l0,0c0.1-0.1,0.1-0.3,0.2-0.5l0,0c0-0.2,0.1-0.3,0.1-0.5l-0.3-4.2
	v-0.1c0-0.2,0-0.3,0-0.5c0-0.1,0.1-0.3,0.1-0.4l0-0.1c0-0.1,0.1-0.3,0.1-0.5l0,0c0.1-0.1,0.1-0.3,0.2-0.4l0.1-0.2l2.3-3.5
	c0.1-0.1,0.2-0.3,0.2-0.5c0.1-0.2,0.1-0.4,0.1-0.5c0-0.2,0-0.4-0.1-0.5c0-0.2-0.1-0.3-0.2-0.5l-2.3-3.5l-0.1-0.1
	c-0.1-0.1-0.1-0.2-0.2-0.3l0-0.1c0-0.2-0.1-0.3-0.1-0.5c0-0.1-0.1-0.3-0.1-0.5c0-0.1,0-0.3,0-0.4v-0.2l0.3-4.2c0-0.2,0-0.4,0-0.5
	c0-0.2-0.1-0.3-0.2-0.5c-0.1-0.1-0.2-0.3-0.3-0.4c-0.1-0.1-0.3-0.2-0.4-0.3l-3.7-1.9l-0.1-0.1c-0.1-0.1-0.3-0.2-0.4-0.3
	c-0.1-0.1-0.2-0.2-0.3-0.3l-0.1-0.1c-0.1-0.1-0.2-0.2-0.3-0.3l0,0c-0.1-0.1-0.2-0.3-0.3-0.4l-0.1-0.1l-1.8-3.7
	c-0.1-0.2-0.1-0.3-0.2-0.4l0,0c-0.1-0.1-0.2-0.2-0.4-0.3l0,0c-0.1-0.1-0.3-0.1-0.5-0.2l0,0c-0.2,0-0.3-0.1-0.5-0.1l-4.2,0.3h-0.1
	c-0.2,0-0.3,0-0.5,0c-0.2,0-0.3-0.1-0.4-0.1l0,0c-0.1,0-0.3-0.1-0.5-0.1c-0.1-0.1-0.3-0.1-0.4-0.2L39.5,17.8z M45.5,28.1
	c-2.7-2.7-6.4-4.4-10.5-4.4s-7.8,1.7-10.5,4.4c-2.7,2.7-4.4,6.5-4.4,10.6s1.7,7.9,4.4,10.6c2.7,2.7,6.4,4.4,10.5,4.4
	s7.8-1.7,10.5-4.4c2.7-2.7,4.4-6.5,4.4-10.6S48.2,30.8,45.5,28.1z M35,21.6c4.7,0,8.9,1.9,12,5c3.1,3.1,5,7.4,5,12.1s-1.9,9-5,12.1
	c-3.1,3.1-7.3,5-12,5s-8.9-1.9-12-5c-3.1-3.1-5-7.4-5-12.1s1.9-9,5-12.1C26.1,23.5,30.3,21.6,35,21.6z M33.4,64.1
	c-0.2-0.1-0.4-0.2-0.6-0.3l-3.4-2.3l-0.2-0.1L29,61.3c-0.1,0-0.2,0-0.3-0.1l-0.2,0l-4.1,0.3c-0.4,0-0.8,0-1.1-0.1l-0.1,0
	c-0.4-0.1-0.7-0.3-1-0.4l-0.1,0c-0.3-0.2-0.6-0.4-0.8-0.7c-0.3-0.3-0.5-0.6-0.6-1L20,58l-5.6,15.5l8.1-2.8c0.5-0.2,1,0,1.3,0.5
	l4.4,7.4L33.4,64.1z M50,58l-0.7,1.4c-0.2,0.4-0.4,0.7-0.6,0.9c-0.3,0.3-0.6,0.5-0.9,0.7c-0.3,0.2-0.7,0.3-1,0.4
	c-0.4,0.1-0.8,0.1-1.1,0.1l-4.1-0.3l-0.2,0c-0.1,0-0.1,0-0.3,0.1c-0.1,0-0.2,0-0.3,0.1l-0.1,0l-0.1,0.1l-3.4,2.3
	c-0.2,0.1-0.4,0.2-0.5,0.3l5.2,14.4l4.4-7.4c0.3-0.4,0.8-0.6,1.3-0.5l8.1,2.8L50,58z M30.9,42.3l-3.4-3.4L26.4,40l5.3,5.3l12-12.1
	l-1.1-1.1L32.4,42.3C32,42.7,31.3,42.7,30.9,42.3z M28.3,36.6l3.4,3.4l10.1-10.2c0.4-0.4,1.1-0.4,1.5,0l2.6,2.7
	c0.4,0.4,0.4,1.1,0,1.5L32.4,47.6c-0.4,0.4-1.1,0.4-1.5,0l-6.8-6.8c-0.4-0.4-0.4-1.1,0-1.5l2.6-2.6C27.2,36.2,27.9,36.2,28.3,36.6z
	 M37.2,13.7l3.4,2.3l0.2,0.1c0.2,0.1,0.3,0.1,0.5,0.1l0.2,0l4.1-0.3c0.4,0,0.8,0,1.1,0.1l0,0c0.4,0.1,0.7,0.3,1,0.4l0.1,0
	c0.3,0.2,0.6,0.4,0.8,0.7l0.1,0.1c0.2,0.3,0.4,0.6,0.6,0.9l1.8,3.6c0.1,0.2,0.2,0.3,0.3,0.4l0.2,0.1l0.2,0.1l3.7,1.8
	c0.3,0.2,0.7,0.4,0.9,0.6c0.3,0.3,0.5,0.6,0.7,0.9c0.2,0.3,0.3,0.7,0.4,1.1c0.1,0.4,0.1,0.8,0.1,1.1l-0.3,4.2l0,0.2
	c0,0.1,0,0.2,0,0.3c0,0.1,0.1,0.2,0.1,0.3l0,0.1l0.1,0.1l2.3,3.5c0.2,0.3,0.4,0.7,0.5,1.1c0.1,0.4,0.2,0.8,0.2,1.2s-0.1,0.8-0.2,1.1
	c-0.1,0.4-0.3,0.7-0.5,1l-2.2,3.4l-0.1,0.2c-0.1,0.2-0.1,0.3-0.1,0.5l0,0.2l0.3,4.2c0,0.4,0,0.8-0.1,1.1l0,0.1
	c-0.1,0.4-0.2,0.7-0.4,1l0,0.1c-0.2,0.3-0.4,0.6-0.7,0.8l-0.1,0.1c-0.3,0.2-0.5,0.4-0.9,0.6L51.8,55l-0.2,0.1l-0.2,0.2l0,0.1
	l-0.1,0.1l7,19.3c0.1,0.2,0.1,0.5,0,0.8c-0.2,0.6-0.8,0.9-1.3,0.7l-9.4-3.2l-5.1,8.5c-0.1,0.2-0.3,0.4-0.5,0.5
	c-0.5,0.2-1.2-0.1-1.3-0.6L35,65.8l-5.6,15.5c-0.2,0.5-0.8,0.8-1.4,0.6c-0.2-0.1-0.4-0.3-0.5-0.5l-5.1-8.5l-9.4,3.2
	c-0.6,0.2-1.2-0.1-1.4-0.7c-0.1-0.3-0.1-0.5,0-0.8l7-19.3l-0.1-0.1l0,0l-0.2-0.1L18.2,55l-3.7-1.8c-0.3-0.2-0.7-0.4-0.9-0.6
	c-0.3-0.3-0.5-0.6-0.7-0.9c-0.2-0.3-0.3-0.7-0.4-1.1c-0.1-0.4-0.1-0.8-0.1-1.1l0.3-4.2l0-0.2l-0.1-0.3l-0.1-0.3l-0.1-0.2l-2.3-3.4
	c-0.2-0.3-0.4-0.7-0.5-1.1c-0.1-0.4-0.2-0.8-0.2-1.2c0-0.4,0.1-0.8,0.2-1.1c0.1-0.4,0.3-0.7,0.5-1l2.2-3.4c0.1-0.2,0.1-0.3,0.2-0.4
	l0.1-0.3l0-0.2L12.4,28c0-0.4,0-0.8,0.1-1.1l0-0.1c0.1-0.4,0.2-0.7,0.4-1l0-0.1c0.2-0.3,0.4-0.6,0.7-0.8l0.1-0.1
	c0.3-0.2,0.5-0.4,0.9-0.6l3.6-1.8c0.2-0.1,0.3-0.2,0.4-0.4c0.1-0.1,0.2-0.2,0.3-0.3l1.8-3.7c0.2-0.3,0.4-0.7,0.6-0.9
	c0.3-0.3,0.6-0.5,0.9-0.7c0.3-0.2,0.7-0.3,1.1-0.4c0.4-0.1,0.8-0.1,1.1-0.1l4.1,0.3l0.2,0c0.1,0,0.2,0,0.3-0.1l0.3-0.1l0.2-0.1
	l3.4-2.3c0.3-0.2,0.7-0.4,1.1-0.5C34.3,13,34.7,13,35,13s0.8,0.1,1.1,0.2C36.5,13.3,36.9,13.5,37.2,13.7z"/>
</svg>
