<?xml version="1.0" encoding="utf-8"?>
<!-- Generator: Adobe Illustrator 21.0.0, SVG Export Plug-In . SVG Version: 6.00 Build 0)  -->
<svg version="1.1" id="圖層_1" xmlns="http://www.w3.org/2000/svg" xmlns:xlink="http://www.w3.org/1999/xlink" x="0px" y="0px"
	 viewBox="0 0 70 82" style="enable-background:new 0 0 70 82;" xml:space="preserve">
<style type="text/css">
	.st0{fill:#C61D06;stroke:#C61D06;stroke-linecap:round;stroke-linejoin:round;stroke-miterlimit:10;}
	
		.st1{fill-rule:evenodd;clip-rule:evenodd;fill:#C61D06;stroke:#C61D06;stroke-linecap:round;stroke-linejoin:round;stroke-miterlimit:10;}
</style>
<g>
	<path class="st0" d="M17.1,17.5c1.5,2.2,3.3,3.5,5.2,4.1c1.9,0.6,3.8,0.5,5.6-0.2c0.5-0.2,1-0.5,1.5-0.7L29,20.2
		c-0.4-0.6-0.8-1-1.3-1.5c-0.3,0.2-0.6,0.3-0.9,0.4c-1.2,0.5-2.5,0.6-3.8,0.1c-1.4-0.5-2.7-1.5-3.9-3.2c-1.7-2.4-3.1-6.3-3.9-11.8
		c2.1,0.9,5.4,2,8.6,1.6c2.9-0.3,5,0.2,6.3,1.2c0.6,0.4,1.1,1,1.4,1.5c0.3,0.6,0.5,1.3,0.6,2c0.1,0.6,0,1.3-0.1,2
		c0.7,0.6,1.4,1.2,2,1.9c0.5-1.4,0.7-2.8,0.5-4.2c-0.1-1-0.4-2-0.9-2.9c-0.5-0.9-1.2-1.7-2.1-2.3c-1.8-1.3-4.5-2-8.1-1.6
		c-4.2,0.5-8.7-2-9.2-2.3C14.1,1,13.9,1,13.6,1c-0.7,0.1-1.2,0.7-1.1,1.4C13.2,9.6,14.9,14.4,17.1,17.5z"/>
	<path class="st0" d="M46.7,15.3c0.4-0.6,0.2-1.3-0.3-1.7c-0.6-0.4-1.4-0.2-1.7,0.3c-0.9,1.3-2.2,2-3.6,2.8
		c-2.1,1.1-4.4,2.4-5.8,5.4c-1.7-6.2-5.2-8.1-8.6-9.9c-1.9-1-3.8-2-5-3.8c-0.4-0.6-1.2-0.7-1.7-0.3c-0.6,0.4-0.7,1.2-0.3,1.7
		c1.6,2.3,3.7,3.5,5.9,4.6c3.6,1.9,7.4,4,8.2,12.9l0.3,0h0l0,0h0h0h0h0h0h0h0h0l0,0h0h0h0l0,0h0h0l0,0h0h0h0h0h0h0h0h0h0l0,0h0h0
		l0,0h0h0l0,0h0h0h0h0h0h0h0h0h0l0,0h0h0l0,0h0h0h0h0l0,0h0h0h0h0h0h0h0h0h0h0h0h0h0h0h0h0h0h0h0h0l0,0h0h0h0h0h0h0h0h0h0h0h0l0,0h0
		h0l0,0h0h0l0,0h0h0l0,0h0h0l0,0h0h0l0,0h0h0l0,0h0h0h0h0h0h0h0l0,0h0h0l0,0h0h0h0h0h0h0l0,0h0h0h0h0h0h0h0h0h0h0h0h0h0h0h0h0h0h0h0
		h0h0h0h0h0h0h0h0h0h0h0h0h0h0h0l0,0h0h0h0h0h0h0h0h0h0h0h0h0h0l0.4,0c0.8-5.6,3.3-7,5.8-8.3C43.9,18,45.5,17.1,46.7,15.3z"/>
	<path class="st1" d="M11,55.8c0-6.5,2.7-12.5,7-16.8c1.1,3.1,3.4,5.1,5.5,6.8c1.9,1.6,3.6,3,3.6,5c0,1.4-0.9,2.5-1.9,3.8
		c-1.1,1.4-2.4,2.9-3,5.3c-0.2,1-0.2,2.3-0.1,3.8c0.1,2.1,0.2,4.5-0.5,6c-0.6,1.4-2.1,2-5.7,0.5C12.9,66.2,11,61.2,11,55.8z
		 M35,32.1c3.9,0,7.5,0.9,10.8,2.5c-2.4,7.3,1,9.3,5.5,12.1c2.4,1.5,5.3,3.2,7.5,6.3c0.1,0.9,0.2,1.8,0.2,2.8c0,6.6-2.7,12.5-7,16.8
		c-0.8,0.8-1.7,1.5-2.6,2.2c-2,0.3-5-0.6-7.9-1.4c-3.8-1.1-7.4-2.2-9.5-0.7c-2.7,2-2.9,4.4-2.6,6.2c-3.8-0.9-7.3-2.8-10.2-5.3
		c2.6,0.2,4-1,4.8-2.9c0.9-2,0.8-4.7,0.7-7c0-1.3-0.1-2.5,0.1-3.2c0.4-1.8,1.5-3.1,2.5-4.3c1.3-1.6,2.5-3,2.4-5.4
		c-0.1-3.1-2.2-4.9-4.5-6.9c-2-1.7-4.3-3.6-5-6.8C24.2,34,29.4,32.1,35,32.1z M48,35.9c1.4,0.9,2.8,2,4,3.2c2.6,2.5,4.5,5.6,5.8,9.1
		c-1.7-1.5-3.5-2.6-5.1-3.6C49.2,42.5,46.6,40.9,48,35.9z M35,79.5c-1,0-2-0.1-2.9-0.2c-0.4-1-0.8-3.1,1.3-4.6
		c1.1-0.8,4.2,0.1,7.3,1c1.7,0.5,3.4,1,5,1.3C42.5,78.6,38.8,79.5,35,79.5z M35,82c7.3,0,13.9-2.9,18.7-7.7s7.8-11.3,7.8-18.5
		s-3-13.8-7.8-18.5c-4.8-4.7-11.4-7.7-18.7-7.7s-13.9,2.9-18.7,7.7C11.5,42,8.5,48.6,8.5,55.8s3,13.8,7.8,18.5
		C21.1,79.1,27.7,82,35,82z"/>
	<path class="st0" d="M37.4,16L37.4,16c0.1-0.6,0.2-1,0.4-1.4c0.2-0.4,0.5-0.8,0.9-1.1c1-0.7,2.4-1,4.5-0.8c2.2,0.2,4.4-0.4,6-1
		c-0.6,3.7-1.6,6.3-2.8,8c-0.9,1.2-1.8,1.9-2.7,2.3c-0.7,0.2-1.4,0.2-2.1,0.1c-0.5,0.4-1,0.9-1.4,1.5c-0.1,0.2-0.2,0.4-0.3,0.5
		l0.3,0.1c1.4,0.5,2.9,0.6,4.4,0.1c1.4-0.5,2.8-1.5,4-3.2c1.6-2.3,2.9-6,3.5-11.4c0.1-0.7-0.4-1.3-1.1-1.4c-0.3,0-0.5,0-0.8,0.2
		c0,0-3.4,2-6.6,1.7c-2.7-0.3-4.8,0.2-6.2,1.3c-0.7,0.5-1.3,1.1-1.7,1.8c-0.4,0.7-0.6,1.5-0.7,2.3c-0.1,0.7,0,1.5,0.1,2.3
		C35.8,17.2,36.5,16.6,37.4,16z"/>
</g>
</svg>
