<?xml version="1.0" encoding="utf-8"?>
<!-- Generator: Adobe Illustrator 21.0.0, SVG Export Plug-In . SVG Version: 6.00 Build 0)  -->
<svg version="1.1" id="圖層_1" xmlns="http://www.w3.org/2000/svg" xmlns:xlink="http://www.w3.org/1999/xlink" x="0px" y="0px"
	 viewBox="0 0 50.6 49.8" style="enable-background:new 0 0 50.6 49.8;" xml:space="preserve">
<style type="text/css">
	.st0{fill:#BB2321;}
</style>
<path class="st0" d="M23.9,35.6l14-32.3C34.2,1.2,29.9,0,25.3,0C11.3,0,0,11.1,0,24.9c0,4.3,1.1,8.4,3.1,12l10.6-22.5
	c0,0,3.6-8.8,19.9-7.4l-1.1,2.4c0,0-9-0.2-12.7,6.5l-3.6,9.3h9.4l-0.9,2h-9.5L8,43c4.5,4.2,10.6,6.8,17.3,6.8
	c8.5,0,15.9-4.1,20.5-10.4H25.4C22,39.3,23.9,35.6,23.9,35.6z M43.2,7.4L32.8,30.7c-2.3,5.4,3.4,5.7,3.4,5.7h11.5
	c1.8-3.4,2.9-7.4,2.9-11.5C50.5,18.1,47.7,11.9,43.2,7.4z"/>
</svg>
