<?xml version="1.0" encoding="utf-8"?>
<!-- Generator: Adobe Illustrator 21.0.0, SVG Export Plug-In . SVG Version: 6.00 Build 0)  -->
<svg version="1.1" id="圖層_1" xmlns="http://www.w3.org/2000/svg" xmlns:xlink="http://www.w3.org/1999/xlink" x="0px" y="0px"
	 viewBox="0 0 197.3 77.5" style="enable-background:new 0 0 197.3 77.5;" xml:space="preserve">
<style type="text/css">
	.st0{fill:#C61D06;}
	.st1{fill-rule:evenodd;clip-rule:evenodd;fill:#160A09;}
	.st2{fill:#160A09;}
	.st3{fill-rule:evenodd;clip-rule:evenodd;fill:#C61D06;}
	.st4{fill:none;stroke:#C61D06;stroke-linecap:round;stroke-linejoin:round;stroke-miterlimit:10;}
	.st5{fill-rule:evenodd;clip-rule:evenodd;}
</style>
<polygon class="st0" points="115.2,46.5 115.2,42.7 107.7,42.7 107.7,31 100.3,31 100.3,46.5 "/>
<path class="st1" d="M87.4,30.8h4.8V40c0,0.9-0.1,1.8-0.4,2.6c-0.3,0.8-0.7,1.5-1.3,2.1c-0.6,0.6-1.3,1-1.9,1.3
	c-0.9,0.3-2,0.5-3.3,0.5c-0.8,0-1.6,0-2.5-0.2c-0.9-0.1-1.6-0.3-2.2-0.6c-0.6-0.3-1.2-0.8-1.7-1.3c-0.5-0.6-0.8-1.2-1-1.8
	c-0.3-1-0.5-1.9-0.5-2.6v-9.3h4.8v9.5c0,0.8,0.2,1.5,0.7,2c0.5,0.5,1.1,0.7,2,0.7c0.8,0,1.5-0.2,1.9-0.7s0.7-1.1,0.7-2V30.8z"/>
<path class="st1" d="M128.1,38.6c0,1.6,0.3,2.7,0.9,3.4c0.6,0.7,1.4,1,2.4,1c1,0,1.8-0.3,2.4-1c0.6-0.7,0.9-1.9,0.9-3.6
	c0-1.5-0.3-2.5-0.9-3.2c-0.6-0.7-1.4-1-2.4-1c-1,0-1.7,0.3-2.3,1C128.4,35.9,128.1,37,128.1,38.6z M123.3,38.6
	c0-2.5,0.7-4.5,2.1-5.9c1.4-1.4,3.4-2.1,5.9-2.1c2.6,0,4.6,0.7,6,2.1c1.4,1.4,2.1,3.3,2.1,5.8c0,1.8-0.3,3.3-0.9,4.5
	c-0.6,1.2-1.5,2.1-2.7,2.7c-1.1,0.6-2.6,1-4.3,1c-1.8,0-3.2-0.3-4.3-0.8c-1.2-0.5-2.1-1.4-2.8-2.6S123.3,40.4,123.3,38.6z"/>
<path class="st1" d="M176.7,40.7v-3.2h7.4v6.7c-1.4,1-2.7,1.6-3.8,2c-1.1,0.3-2.4,0.5-3.9,0.5c-1.8,0-3.3-0.3-4.5-0.9
	c-1.2-0.6-2.1-1.6-2.7-2.8c-0.6-1.3-1-2.7-1-4.3c0-1.7,0.3-3.2,1.1-4.4c0.7-1.3,1.7-2.2,3.1-2.9c1.1-0.5,2.5-0.8,4.3-0.8
	c1.7,0,3,0.2,3.9,0.5c0.8,0.3,1.5,0.8,2.1,1.4c0.6,0.7,1,1.5,1.3,2.5l-4.6,0.8c-0.2-0.6-0.5-1-1-1.3c-0.5-0.3-1-0.5-1.8-0.5
	c-1.1,0-1.9,0.4-2.5,1.1c-0.6,0.7-0.9,1.9-0.9,3.5c0,1.7,0.3,2.9,0.9,3.6c0.6,0.7,1.5,1.1,2.6,1.1c0.5,0,1.1-0.1,1.5-0.2
	c0.5-0.2,1.1-0.4,1.7-0.8v-1.5H176.7z"/>
<path class="st0" d="M125.5,26.4c6.9-3,14.9-0.2,18.4,6.4c-0.1-0.3-0.2-0.7-0.4-1c-3.2-7.2-11.6-10.5-18.9-7.3
	c-7.2,3.2-10.5,11.6-7.3,18.8c0.1,0.3,0.3,0.7,0.5,1C115.3,37.3,118.6,29.4,125.5,26.4z"/>
<path class="st0" d="M188.1,66.7c-8.8,9.8-23.7,11.1-34,3.1c0.4,0.4,0.9,0.9,1.3,1.3c10.3,9.3,26.2,8.4,35.4-1.9
	c9.3-10.3,8.4-26.2-1.9-35.5c-0.5-0.4-1-0.8-1.4-1.2C196.5,41.9,196.9,56.8,188.1,66.7z"/>
<polygon class="st2" points="161.3,30.8 156.8,30.8 156.8,39.4 150.9,30.8 146.4,30.8 146.4,46.3 150.9,46.3 150.9,37.8 156.8,46.3 
	161.3,46.3 "/>
<polygon class="st2" points="68.8,36.8 63.3,36.8 63.3,34.1 68.8,34.1 68.8,30.8 57.1,30.8 57.1,46.3 63.3,46.3 63.3,40 68.8,40 "/>
<path class="st3" d="M24.2,36.1l14-32.3c-3.7-2.1-8-3.3-12.6-3.3C11.6,0.5,0.3,11.6,0.3,25.4c0,4.3,1.1,8.4,3.1,12L14,14.9
	c0,0,3.6-8.8,19.9-7.4l-1.1,2.4c0,0-9-0.2-12.7,6.5l-3.6,9.3h9.4l-0.9,2h-9.5L8.3,43.5c4.5,4.2,10.6,6.8,17.3,6.8
	c8.5,0,15.9-4.1,20.5-10.4H25.7C22.3,39.8,24.2,36.1,24.2,36.1z M43.5,7.9L33.1,31.2c-2.3,5.4,3.4,5.7,3.4,5.7H48
	c1.8-3.4,2.9-7.4,2.9-11.5C50.8,18.6,48,12.4,43.5,7.9z"/>
<path class="st4" d="M51.1,25.5c0,13.8-11.3,24.9-25.3,24.9c-14,0-25.3-11.2-25.3-24.9c0-13.8,11.3-25,25.3-25
	C39.8,0.5,51.1,11.7,51.1,25.5z"/>
<path class="st5" d="M91.3,21.5l-0.2,0.2v1.3l0.2,0.2h0.2c0.3-0.1,0.5-0.3,0.6-0.6v-0.9L92,21.5H91.3z M91.3,17.4l-0.2,0.2v1.2
	l0.2,0.2H92l0.2-0.2v-1.2L92,17.4H91.3z M87.7,10.6l-0.2,0.2v1.1l0.2,0.2h3c0.1,0,0.3-0.1,0.5-0.5v-0.8L91,10.6H87.7z M86.7,21.5
	l-0.2,0.2v1.3l0.2,0.2h0.8l0.2-0.2v-1.3l-0.2-0.2H86.7z M86.7,17.4l-0.2,0.2v1.2l0.2,0.2h0.8l0.2-0.2v-1.2l-0.2-0.2H86.7z M84.1,8.3
	h10.6l0.1,0.1v4.2c-0.3,1.2-1,1.8-1.9,1.8h-8.8L84,14.2V8.4L84.1,8.3z M83.8,5.3h11.1L95,5.5v1.8l-0.2,0.1H83.8l-0.1-0.1V5.5
	L83.8,5.3z M81.7,12.9h1.3c0.1-0.1,0.2,0.2,0.1,0.7c0,2.2,0.1,4.7,0.3,7.3h0.3l0.1-0.1v-5.6l0.1-0.1h10.9l0.1,0.1V24
	c-0.2,0.8-0.7,1.2-1.3,1.4l-0.1,0h-9.6c-0.1,0.1-0.2-0.2-0.1-0.8c0.1-0.6-0.1-0.8-0.7-0.7c-1,0-1.4-0.9-1.3-2.7
	c-0.1-1.9-0.2-4-0.2-6.5V13L81.7,12.9z M74.8,5.4h7.9l0.1,0.1v2.7l-0.1,0.1h-7.9l-0.1-0.1V5.5L74.8,5.4z M74.5,9.2h8.6l0.1,0.1v2.7
	l-0.1,0.1h-2l-0.2,0.2v13.1l-0.1,0.1h-3.3l-0.1-0.1V12.3l-0.2-0.2h-2.6l-0.1-0.1V9.4L74.5,9.2z M75,13h1.4l0.1,0.1v7l-0.1,2.5
	c-0.1,0.7-0.5,1.2-1.2,1.4h-0.7l-0.1-0.1v-2.7c0.3,0,0.5-0.5,0.5-1.5v-6.5L75,13z"/>
<path class="st5" d="M153.1,7.8l-0.6,1.1V9h2.7l1.3-1.2V7.8H153.1z M150.7,4.9h3.4l0.1,0.1v0.2l-0.1,0.3h6.9l0.1,0.1v2.6L158,11
	c0.1,0.2,0.5,0.5,1.2,0.9h2.1l0.1,0.1v2l-0.1,0.1h-4.4c-0.5-0.2-1-0.5-1.5-0.9h-0.1l-1.1,0.8l-0.2,0.1h-4.6l-0.1-0.1v-2l0.1-0.1h2.6
	l0.7-0.6l-3.3-2.4v-2C149.9,6.8,150.4,6.2,150.7,4.9L150.7,4.9z M144.2,16.1l-0.2,0.2V21l0.2,0.2h0.6c0.2,0,0.4-0.2,0.6-0.5v-4
	c-0.3-0.4-0.4-0.6-0.5-0.5l0-0.1H144.2z M144.2,8.3L144,8.4V13l0.2,0.2h0.6c0.2,0,0.4-0.2,0.7-0.6V8.7c-0.1-0.3-0.3-0.4-0.5-0.5
	H144.2z M141.1,5.4h6c0.5,0,1,0.5,1.5,1.4v6.7c-0.1,0.4-0.4,0.8-0.7,1.1c0.3,0.3,0.6,0.6,0.7,1v2.5l0.2,0.2h0.4
	c0.3-0.1,0.4-0.4,0.5-0.9h2.4c0.1,0,0.2,0.2,0.2,0.6l0,0.1h1.2l0.2-0.2V17l-0.2-0.2h-3.9l-0.1-0.1v-1.7l0.1-0.1h11.5l0.1,0.1v1.7
	l-0.1,0.1h-3.5l-0.2,0.2v0.9l0.2,0.2h3.4l0.1,0.1v1.7L161,20h-3.4l-0.2,0.2v0.5l0.2,0.2h3.4l0.1,0.1v1.7l-0.1,0.1h-3.4l-0.2,0.2v0.4
	l0.2,0.1h3.4l0.1,0.1v1.7l-0.1,0.1h-11.4l-0.1-0.1v-1.7l0.1-0.1h3.9l0.2-0.1V23l-0.2-0.2h-4l-0.1-0.1V21l0.1-0.1h4l0.2-0.2v-0.5
	l-0.2-0.2h-2.1c-0.2,0.2-0.4,0.3-0.8,0.4h-1.9l-0.2,0.2v2c0,0.4-0.4,0.8-1.2,1.3l-1,0h-2.1c-0.2-0.1-0.2,0.2-0.2,0.9
	c0,0.6,0,0.8,0,0.7l-0.1,0.1h-2.8l-0.1-0.1V5.5L141.1,5.4z"/>
</svg>
